<svg version="1.1" id="illustration" xmlns="http://www.w3.org/2000/svg" x="0" y="0" viewBox="0 0 964 534" xml:space="preserve"><style>.st3{fill:#e8f0fe}.st5{fill:#fff}.st6{fill:#4285f4}.st7{fill:none;stroke:#aecbfa;stroke-miterlimit:10}.st8{fill:#d2e3fc}.st11{fill:#1a73e8}.st16{fill:#babfc5}.st17{fill:#34a853}.st18{fill:#8ab4f8}.st19{fill:#aecbfa}</style><linearGradient id="SVGID_1_" gradientUnits="userSpaceOnUse" x1="83.14" y1="301.173" x2="83.14" y2="279.808"><stop offset="0" stop-color="#fff" stop-opacity="0"/><stop offset=".124" stop-color="#fafcff" stop-opacity=".124"/><stop offset=".587" stop-color="#edf3fe" stop-opacity=".587"/><stop offset="1" stop-color="#e8f0fe"/></linearGradient><path d="M96.29 279.81c-9.21 0-17.04 5.85-20.04 14.02-2.55-4.45-7.33-7.45-12.83-7.45-8.17 0-14.79 6.62-14.79 14.79h69.03c-.01-11.8-9.57-21.36-21.37-21.36z" fill="url(#SVGID_1_)"/><linearGradient id="SVGID_2_" gradientUnits="userSpaceOnUse" x1="250.072" y1="510" x2="250.072" y2="278.811"><stop offset="0" stop-color="#fff" stop-opacity="0"/><stop offset="1" stop-color="#e8f0fe"/></linearGradient><path d="M9.48 433.45s9.84-67.46 30.47-67.46c13.08 0 13.08 14.54 27 14.54 9.27 0 58.76-101.73 104.64-101.73 50.47 0 73.21 94.43 91.91 93.97 18.7-.46 23.12-25.09 37.41-25.09 25.84 0 36.05 73.13 52.71 73.13 11.9 0 13.04-16.41 24.38-13.83 11.73 2.67 21.57 59.88 41.2 59.88 10.79 0 12.75-11.07 22.27-11.07 14.28 0 26.75 54.2 49.19 54.2" fill="url(#SVGID_2_)"/><linearGradient id="SVGID_3_" gradientUnits="userSpaceOnUse" x1="209.456" y1="235.801" x2="209.456" y2="214.436" gradientTransform="matrix(-1 0 0 1 419.794 0)"><stop offset="0" stop-color="#fff" stop-opacity="0"/><stop offset=".124" stop-color="#fafcff" stop-opacity=".124"/><stop offset=".587" stop-color="#edf3fe" stop-opacity=".587"/><stop offset="1" stop-color="#e8f0fe"/></linearGradient><path d="M197.19 214.44c9.21 0 17.04 5.85 20.04 14.02 2.55-4.45 7.33-7.45 12.83-7.45 8.17 0 14.79 6.62 14.79 14.79h-69.03c.01-11.8 9.57-21.36 21.37-21.36z" fill="url(#SVGID_3_)"/><path class="st3" d="M438.41 498.77c-6.93-2.64-14.41-4.21-22.27-4.21-4.57 0-9.02.51-13.3 1.47-3.72.83-7.62.43-11-1.34-18.55-9.71-39.65-15.21-62.04-15.21-3.11 0-6.19.11-9.24.32-4.49.31-8.94-1.14-12.3-4.13-23.63-20.95-54.72-33.68-88.79-33.68-27.08 0-52.29 8.05-73.36 21.87a22.866 22.866 0 0 1-16.28 3.46c-7.09-1.16-14.36-1.76-21.77-1.76-39.57 0-75.12 17.17-99.64 44.46H492.59c-12.24-.02-31.53-2.61-54.18-11.25z"/><path fill="none" stroke="#d2e3fc" stroke-miterlimit="10" d="M456.69 509.39H953"/><path class="st5" d="M215.19 510H83.14l23.54-312.92h84.87z"/><path class="st5" d="M196.3 259.35h-94.32l4.7-62.27h84.87z"/><path class="st6" d="M200.95 321.63H97.29l4.69-62.28h94.32z"/><path class="st5" d="M113.84 142.88h70.56v41.93h-70.56z"/><path class="st3" d="M113.84 142.88h9.64v41.93h-9.64z"/><path class="st7" d="M193.6 185.42h-88.97v-7.06c0-.62.5-1.13 1.13-1.13h86.72c.62 0 1.13.5 1.13 1.13v7.06z"/><path class="st7" d="M110.56 185.42h-5.93v-7.07c0-.62.5-1.11 1.11-1.11h4.82v8.18zM110.56 177.24h5.93v8.18h-5.93z"/><path class="st7" d="M116.49 177.24h5.93v8.18h-5.93zM122.43 177.24h5.93v8.18h-5.93zM128.36 177.24h5.93v8.18h-5.93z"/><path class="st7" d="M134.29 177.24h5.93v8.18h-5.93zM140.22 177.24h5.93v8.18h-5.93zM146.15 177.24h5.93v8.18h-5.93zM152.08 177.24h5.93v8.18h-5.93z"/><path class="st7" d="M158.01 177.24h5.93v8.18h-5.93zM163.94 177.24h5.93v8.18h-5.93zM169.87 177.24h5.93v8.18h-5.93zM175.81 177.24h5.93v8.18h-5.93zM181.74 177.24h5.93v8.18h-5.93z"/><path class="st7" d="M193.6 185.42h-5.93v-8.18h4.82c.62 0 1.11.5 1.11 1.11v7.07z"/><path class="st8" d="M191.14 197.08h-84.05a4.5 4.5 0 0 1-4.5-4.5v-4.59c0-1.76 1.42-3.18 3.18-3.18h86.7c1.76 0 3.18 1.42 3.18 3.18v4.59a4.515 4.515 0 0 1-4.51 4.5zM111.71 134.19h74.8v8.69h-74.8z"/><path class="st5" d="M205.64 383.9H92.53l4.76-62.27h103.66z"/><path class="st6" d="M210.34 446.18H87.93l4.6-62.28h113.11z"/><path class="st5" d="M215.19 510H83.14l4.79-63.82h122.41z"/><path class="st3" d="M113.84 134.19c0-19.48 15.8-35.28 35.28-35.28s35.28 15.8 35.28 35.28h-70.56z"/><path fill="none" stroke="#aecbfa" stroke-linecap="round" stroke-miterlimit="10" d="M148.6 98.91V79.48"/><path class="st8" d="M153.9 99.24c-1.57-.21-3.16-.33-4.78-.33-19.48 0-35.28 15.8-35.28 35.28h9.57c0-17.86 13.27-32.61 30.49-34.95z"/><path fill="#ea4335" d="M148.09 89.7V79.48l-18.4 5.11z"/><path class="st3" d="M106.68 197.08h15.65l-4.68 62.27h-15.67z"/><path class="st11" d="M101.98 259.35h15.67l-4.69 62.28H97.29z"/><path class="st3" d="M97.29 321.63h15.67l-4.68 62.27H92.53z"/><path class="st11" d="M103.6 446.18H87.93l4.6-62.28h15.75z"/><path class="st3" d="M98.79 510H83.14l4.79-63.82h15.67z"/><circle class="st3" cx="149.12" cy="160.77" r="9.57"/><path d="M174.72 160.77c0-5.28 4.28-9.57 9.57-9.57v19.14c-5.28 0-9.57-4.28-9.57-9.57z" fill="#fef7e0"/><path class="st8" d="M123.44 160.77c0-5.28-4.28-9.57-9.57-9.57v19.14c5.29 0 9.57-4.28 9.57-9.57z"/><linearGradient id="SVGID_4_" gradientUnits="userSpaceOnUse" x1="953" y1="163" x2="184.293" y2="163"><stop offset="0" stop-color="#fef7e0" stop-opacity="0"/><stop offset="1" stop-color="#fef7e0"/></linearGradient><path fill="url(#SVGID_4_)" d="M184.29 167.85L953 291V35L184.29 154.25z"/><linearGradient id="SVGID_5_" gradientUnits="userSpaceOnUse" x1="522.491" y1="389.649" x2="522.491" y2="359.329" gradientTransform="matrix(-1 0 0 1 1078.319 0)"><stop offset="0" stop-color="#fff" stop-opacity="0"/><stop offset=".124" stop-color="#fafcff" stop-opacity=".124"/><stop offset=".587" stop-color="#edf3fe" stop-opacity=".587"/><stop offset="1" stop-color="#e8f0fe"/></linearGradient><path d="M537.17 359.33c13.08 0 24.19 8.29 28.44 19.9 3.62-6.31 10.41-10.57 18.2-10.57 11.59 0 20.99 9.4 20.99 20.99h-97.95c0-16.75 13.57-30.32 30.32-30.32z" fill="url(#SVGID_5_)"/><linearGradient id="SVGID_6_" gradientUnits="userSpaceOnUse" x1="771.039" y1="246.483" x2="771.039" y2="225.118"><stop offset="0" stop-color="#fff" stop-opacity="0"/><stop offset=".124" stop-color="#fafcff" stop-opacity=".124"/><stop offset=".587" stop-color="#edf3fe" stop-opacity=".587"/><stop offset="1" stop-color="#e8f0fe"/></linearGradient><path d="M784.19 225.12c-9.21 0-17.04 5.85-20.04 14.02-2.55-4.45-7.33-7.45-12.83-7.45-8.17 0-14.79 6.62-14.79 14.79h69.03c-.01-11.8-9.57-21.36-21.37-21.36z" fill="url(#SVGID_6_)"/><path class="st16" d="M359.36 509.89h-2.06v-35.43c0-.57.46-1.03 1.03-1.03.57 0 1.03.46 1.03 1.03v35.43z"/><path class="st17" d="M368.14 497.5h-18.93c-2.47 0-4.47-2-4.47-4.47 0-2.47 2-4.47 4.47-4.47h18.93c2.47 0 4.47 2 4.47 4.47 0 2.47-2 4.47-4.47 4.47z"/><path class="st17" d="M364.47 488.56h-11.58c-2.47 0-4.47-2-4.47-4.47 0-2.47 2-4.47 4.47-4.47h11.58c2.47 0 4.47 2 4.47 4.47 0 2.47-2 4.47-4.47 4.47z"/><path class="st17" d="M358.33 497.5a5.16 5.16 0 0 1-5.16-5.16v-17.89a5.16 5.16 0 1 1 10.32 0v17.89a5.16 5.16 0 0 1-5.16 5.16z"/><path class="st16" d="M52.82 510h-2.06v-35.35c0-.57.46-1.03 1.03-1.03.57 0 1.03.46 1.03 1.03V510z"/><path class="st17" d="M61.58 497.64H42.69c-2.46 0-4.46-2-4.46-4.46s2-4.46 4.46-4.46h18.88c2.46 0 4.46 2 4.46 4.46a4.443 4.443 0 0 1-4.45 4.46zM57.91 488.72H46.36c-2.46 0-4.46-2-4.46-4.46s2-4.46 4.46-4.46h11.56c2.46 0 4.46 2 4.46 4.46s-2 4.46-4.47 4.46z"/><path class="st17" d="M51.79 497.64c-2.84 0-5.15-2.31-5.15-5.15v-17.85c0-2.84 2.31-5.15 5.15-5.15 2.84 0 5.15 2.31 5.15 5.15v17.85c0 2.85-2.3 5.15-5.15 5.15z"/><path class="st3" d="M25.92 496.13h-1.39V472.3c0-.38.31-.69.69-.69.38 0 .69.31.69.69v23.83z"/><path class="st3" d="M31.83 487.8H19.09c-1.66 0-3.01-1.35-3.01-3.01 0-1.66 1.35-3.01 3.01-3.01h12.73c1.66 0 3.01 1.35 3.01 3.01a2.992 2.992 0 0 1-3 3.01z"/><path class="st3" d="M29.36 481.79h-7.79c-1.66 0-3.01-1.35-3.01-3.01 0-1.66 1.35-3.01 3.01-3.01h7.79c1.66 0 3.01 1.35 3.01 3.01 0 1.66-1.35 3.01-3.01 3.01z"/><path class="st3" d="M25.23 487.8c-1.92 0-3.47-1.55-3.47-3.47V472.3c0-1.92 1.55-3.47 3.47-3.47 1.92 0 3.47 1.55 3.47 3.47v12.03c0 1.92-1.55 3.47-3.47 3.47zM318.42 482.03h-1.39v-23.84c0-.38.31-.69.69-.69.38 0 .69.31.69.69v23.84z"/><path class="st3" d="M324.33 473.7H311.6c-1.66 0-3.01-1.35-3.01-3.01 0-1.66 1.35-3.01 3.01-3.01h12.73c1.66 0 3.01 1.35 3.01 3.01 0 1.66-1.35 3.01-3.01 3.01zM321.86 467.68h-7.79c-1.66 0-3.01-1.35-3.01-3.01 0-1.66 1.35-3.01 3.01-3.01h7.79c1.66 0 3.01 1.35 3.01 3.01a3.02 3.02 0 0 1-3.01 3.01z"/><path class="st3" d="M317.73 473.7c-1.92 0-3.47-1.55-3.47-3.47V458.2c0-1.92 1.55-3.47 3.47-3.47 1.92 0 3.47 1.55 3.47 3.47v12.03c0 1.91-1.55 3.47-3.47 3.47z"/><g><path class="st3" d="M270.4 455.63h-1.21v-20.7c0-.33.27-.6.6-.6.33 0 .6.27.6.6v20.7z"/><path class="st3" d="M275.53 448.4h-11.06c-1.44 0-2.61-1.17-2.61-2.61s1.17-2.61 2.61-2.61h11.06c1.44 0 2.61 1.17 2.61 2.61s-1.17 2.61-2.61 2.61zM273.38 443.17h-6.77c-1.44 0-2.61-1.17-2.61-2.61s1.17-2.61 2.61-2.61h6.77c1.44 0 2.61 1.17 2.61 2.61 0 1.45-1.17 2.61-2.61 2.61z"/><path class="st3" d="M269.8 448.4c-1.66 0-3.01-1.35-3.01-3.01v-10.45c0-1.66 1.35-3.01 3.01-3.01 1.66 0 3.01 1.35 3.01 3.01v10.45c0 1.66-1.35 3.01-3.01 3.01z"/></g><path class="st8" d="M152.08 347.75c3.2 0 5.79 2.59 5.79 5.79v5.79h-11.58v-5.79c0-3.2 2.59-5.79 5.79-5.79zM152.08 222.42c3.2 0 5.79 2.59 5.79 5.79V234h-11.58v-5.79c0-3.19 2.59-5.79 5.79-5.79zM149.12 488.21a7.17 7.17 0 0 1 7.17 7.17v14.55h-14.34v-14.55c-.01-3.96 3.21-7.17 7.17-7.17zM861.76 501.19h31.72l4.95 8.2h-31.74z"/><path class="st18" d="M853.11 501.19h8.65l4.93 8.2h-8.64z"/><path class="st3" d="M870.88 463.18L891.21 497h-20.33z"/><path class="st19" d="M855.34 501.19l11.19-5.38s-4.53-10.9 4.36-32.63a90.874 90.874 0 0 0-10.76 20.16 89.442 89.442 0 0 0-4.79 17.85zM870.88 485.73h13.55l-2.48-4.13h-11.07z"/><path class="st18" d="M874.64 457.88h-3.76v-2.05h3.76l-1.11 1.03z"/><path fill="none" stroke="#d2e3fc" stroke-linecap="round" stroke-linejoin="round" stroke-miterlimit="10" d="M870.88 501.19v-46.47"/><script xmlns=""/></svg>